<?xml version="1.0" encoding="UTF-8"?>
<svg id="Layer_2" data-name="Layer 2" xmlns="http://www.w3.org/2000/svg" viewBox="0 0 662.3 294.7">
  <g id="Layer_1-2" data-name="Layer 1">
    <path d="m263.3,270c20.6-10.1,37.4-26,50.3-47.6,13-21.7,26.3-49.8,40.1-84.5,8.7-20.9,18-40.6,28.1-59,10.1-18.4,24.5-33.2,43.3-44.4,18.8-11.2,44.8-16.8,78-16.8s74.2,9,101.2,27.1c27.1,18,40.6,49.4,40.6,94.2s-10.8,69.3-32.5,91c-21.7,21.7-52,32.5-91,32.5h-30.3c-4.8,0-8.7,3.9-8.7,8.7h0c0,4.8,3.9,8.7,8.7,8.7h34.6c43.3,0,76.9-12.6,100.7-37.9,23.8-25.3,35.7-59.6,35.7-102.9s-14.4-85.4-43.3-106.7c-5.8-4.3-12-8.1-18.6-11.6s-1.1-3.4.8-3.4h30c4.8,0,8.7-3.9,8.7-8.7h0c0-4.8-3.9-8.7-8.7-8.7H129C57.8,0,0,57.8,0,129v157c0,4.8,3.9,8.7,8.7,8.7h0c4.8,0,8.7-3.9,8.7-8.7v-75.9c0-3.5,4.7-4.5,6.2-1.4s.7,1.5,1,2.2c10.8,22.7,28.5,40.8,53.1,54.1,24.5,13.4,57.4,20,98.5,20s66.6-5.1,87.2-15.2Zm-204.7-40.1c-20-22.9-30.9-51.2-32.7-84.9h143.8c4,0,7.3-3.3,7.3-7.3v-2.5c0-4-3.3-7.3-7.3-7.3H25.8c.9-20.4,5.9-38.7,15-55,10.1-18.1,27.4-32.3,52-42.8,5.5-2.3,11.4-4.4,17.8-6.2,15.9-4.5,32.5-6.6,49-6.6h260c-19.1,10.4-34.8,24.7-46.9,43.1-12.6,19.1-24,41.7-34.1,67.7-9.4,25.3-19.5,48.5-30.3,69.8-10.8,21.3-26.2,38.3-46,50.9-19.9,12.6-48.6,18.9-86.1,18.9-56.3,0-95.5-12.6-117.5-37.9Z"/>
  </g>
</svg>