<?xml version="1.0" encoding="UTF-8"?>
<svg id="Layer_2" data-name="Layer 2" xmlns="http://www.w3.org/2000/svg" viewBox="0 0 111.2 258.2">
  <g id="Layer_1-2" data-name="Layer 1">
    <path d="m105.3,155.6c-3.9-8-10.1-14.6-18.6-19.6-8.4-5.1-19.4-10.3-32.9-15.6-8.2-3.4-15.8-7-23-11-7.2-3.9-12.9-9.6-17.3-16.9-4.4-7.3-6.5-17.4-6.5-30.4s3.5-28.9,10.6-39.5c7-10.6,19.3-15.8,36.7-15.8s27,4.2,35.5,12.7,12.7,20.3,12.7,35.5v13.1c0,1.2.9,2.1,2.1,2.1h2.5c1.2,0,2.1-.9,2.1-2.1v-14.8c0-16.9-4.9-30-14.8-39.3C84.4,4.6,71.1,0,54.2,0S20.9,5.6,12.6,16.9c-2.3,3.1-4.2,6.4-5.8,10V10.8c0-1.2-.9-2.1-2.1-2.1h-2.5c-1.2,0-2.1.9-2.1,2.1v247.4h88.2c1.2,0,2.1-.9,2.1-2.1v-2.5c0-1.2-.9-2.1-2.1-2.1h-13c2.4-.8,4.7-1.7,7-2.8,8.9-4.2,15.9-11.1,21.1-20.7,5.2-9.6,7.8-22.4,7.8-38.4s-2-26-5.9-34ZM6.8,251.5v-22.6c4.3,9.1,10.1,15.6,17.5,19.6,2.2,1.2,4.5,2.2,6.8,3H6.8Zm82.9-16.1c-8.9,7.8-20,12-33.1,12.8v-57c0-1.1-.9-1.9-1.9-1.9h-2.8c-1.1,0-1.9.9-1.9,1.9v57c-8-.3-15.1-2.3-21.4-5.8-7-3.9-12.6-10.7-16.7-20.3-2.3-5.5-4-12.1-5-20v-107.4c4,7.5,9.6,13.6,16.8,18.3,7.5,4.9,16.3,9.4,26.4,13.3,9.8,3.7,18.9,7.6,27.2,11.8,8.3,4.2,14.9,10.2,19.8,17.9,4.9,7.7,7.4,18.9,7.4,33.6,0,22-4.9,37.2-14.8,45.8Z"/>
  </g>
</svg>