<?xml version="1.0" encoding="UTF-8"?>
<svg id="Layer_2" data-name="Layer 2" xmlns="http://www.w3.org/2000/svg" viewBox="0 0 192 83.3">
  <defs>
    <style>
      .cls-1 {
        fill: #f7f5f5;
      }

      .cls-2 {
        fill: #e50007;
      }

      .cls-3 {
        fill: #333;
        fill-rule: evenodd;
      }
    </style>
  </defs>
  <g id="Layer_1-2" data-name="Layer 1">
    <g>
      <circle class="cls-1" cx="150.5" cy="41.8" r="41.5"/>
      <path class="cls-3" d="m140.7,11.3l-8.7,38.5h5.4l8.7-38.5h-5.4Zm22.9,22.6l-3.8,15.8h5.4l3.8-15.8h-5.4Zm-9.2,0l-8.7,38.5h5.4l8.7-38.5h-5.4Zm-9.3,0l-3.8,15.8h5.4l3.8-15.8h-5.4Z"/>
      <path class="cls-1" d="m106,41.8c0-13.2,6.1-24.9,15.7-32.5C114.6,3.5,105.4,0,95.5,0c-22.9,0-41.5,18.6-41.5,41.5s18.6,41.5,41.5,41.5,18.7-3.4,25.8-9c-9.3-7.6-15.3-19.2-15.3-32.2Z"/>
      <path d="m106.9,50.6c-.3-1.2-.5-2.4-.6-3.6h-.8v-14h-4.1v6.6s-9.4,7.6-9.4,7.6l-2-1.8c3.1-2.4,6.3-4.9,9.4-7.4-.9-.8-1.9-1.5-2.8-2.3l-9.4,7.4-2-1.8,9.4-7.1c-.9-.8-1.9-1.5-2.8-2.3l-9.9,7.6h0c-.5-1.9-1.6-3.6-3.1-4.8-1.5-1.2-3.3-1.8-5.2-1.9h-7.2v17.6h6.3c.6,0,1.2,0,1.8,0,1.1-.1,2.1-.4,3-.9,2.2-1.1,3.9-3.2,4.4-5.6l9.9,7.6c3.3-2.5,6.6-5.1,9.9-7.6v6.6h5.2Zm-30.2-5.1c-.8,1.1-2.1,1.7-3.4,1.7h-3.2v-10.7h2.3c.6,0,1.1,0,1.7.1,1.4.3,2.6,1.3,3.3,2.6,1.1,2,.8,4.5-.6,6.3Z"/>
      <path class="cls-1" d="m51.5,41.8c0-13.2,6.2-24.9,15.8-32.5C60.2,3.7,51.2.3,41.5.3,18.6.3,0,18.9,0,41.8s18.6,41.5,41.5,41.5,18.7-3.4,25.8-9c-9.6-7.6-15.8-19.3-15.8-32.5Z"/>
      <g>
        <path class="cls-2" d="m39.5,51.2c.2,0,11.4-4.8,11.7-4.9,0,0,.2-.1.5-.2,0-.6-.1-1.3-.1-1.9-2.6,1.5-5.3,3.1-7.9,4.6-.5.3-4,2.3-4.1,2.5Z"/>
        <path class="cls-2" d="m12.9,44.8c-1.2-1.4-2.3-2.7-3.3-3.9-.4-.5-2.7-3.4-3.1-4,0,.1.5,2.5.6,2.8.1.5.2.9.4,1.4,1.3,4.8,2.6,6.6,7.2,9,.6.3,4.6,2.3,4.9,2.3h0c0-.2-1.4-1.6-1.7-1.9-1.7-1.9-3.4-3.7-5.1-5.7Z"/>
        <path class="cls-2" d="m53.4,54.4h-.2c-.2.1-.8.4-1,.4-.4.1-.7.2-1.1.3-1.8.4-4.5.2-6.3-.1-2.1-.3-3.6-.7-5.6-1.2-.5-.1-4-1.1-4.2-1.2.1-.2,2.1-1.5,2.3-1.6,3.8-2.6,10.1-6.5,14.3-8.9,0,0,0-.1,0-.2,0-1.4,0-2.8.2-4.2-.8.5-2.4,1.4-2.7,1.5-5.1,2.9-10.7,6.5-15.5,9.8-1.3.9-3.1,2.1-4.4,3.1l-1.1.8c-.1,0-.3.2-.3.3.5.4,3.7,1.7,4.5,2,4.3,1.5,8.3,2.6,12.8,3.4l2.9.4,2.3.2-1.8-.2c.4,0,.7,0,1,.1.5,0,1,0,1.5.1,1,0,2.1.2,3.1.2.6,0,1.1,0,1.6,0-.8-1.7-1.5-3.4-2-5.2Z"/>
        <path class="cls-2" d="m26.6,55.5c-.7-1.2-.9-2,0-3.2.9-1.4,2.9-3.1,4.2-4.2,3.1-2.7,6-5.1,9.3-7.7,1.6-1.2,3.2-2.4,4.9-3.6,1.6-1.2,3.3-2.3,5-3.4l2.6-1.7s.1,0,.3-.2c.7-2.9,1.8-5.8,3.2-8.4-.7.2-1.4.4-2.1.6-1.1.3-2,.7-2.9,1.1-.6.2-2.2,1.4-2.4,1.6h0c-.1,0-.1,0-.2.2,0,0-.2.1-.2.2-.2.2-.3.3-.5.4-.8.7-2,1.8-2.8,2.6-1.3,1.2-2.4,2.4-3.7,3.6-2.3,2.3-5,5-7.3,7.2-1.9,1.8-3.6,3.4-5.6,5.2-.8.7-1.3,1.3-2.3,1.4-1.7,0-4-1.4-5.2-2.1-1-.6-3.7-2.2-5-2.2l1,1.3c.7,1,1.8,3.3,2.4,4.4,1.9,3.8,4.5,7.8,7.7,10.4.8.7,1.6,1.2,2.6,1.9.5.3.9.5,1.5.8.2.1,1.4.7,1.6.7-.3-.3-.7-.8-1-1.1-1.2-1.5-4-4.3-4.8-5.7Z"/>
      </g>
    </g>
  </g>
</svg>