<?xml version="1.0" encoding="UTF-8"?>
<svg id="Layer_2" data-name="Layer 2" xmlns="http://www.w3.org/2000/svg" viewBox="0 0 194 85">
  <defs>
    <style>
      .cls-1 {
        fill: #f7f5f5;
        stroke: #ff5733;
        stroke-miterlimit: 10;
        stroke-width: 2px;
      }

      .cls-2 {
        fill: #e50007;
      }

      .cls-2, .cls-3 {
        fill-rule: evenodd;
      }

      .cls-3 {
        fill: #333;
      }
    </style>
  </defs>
  <g id="Layer_1-2" data-name="Layer 1">
    <g>
      <g>
        <circle class="cls-1" cx="42.5" cy="42.5" r="41.5"/>
        <path class="cls-2" d="m49.5,27.1c-.1,0-.1,0-.2.2,0,0-.2.1-.2.2-.2.2-.3.3-.5.4-.8.7-2,1.8-2.8,2.6-1.3,1.2-2.4,2.4-3.7,3.6-2.3,2.3-5,5-7.3,7.2-1.9,1.8-3.6,3.4-5.6,5.2-.8.7-1.3,1.3-2.3,1.4-1.7,0-4-1.4-5.2-2.1-1-.6-3.7-2.2-5-2.2l1,1.3c.7,1,1.8,3.3,2.4,4.4,1.9,3.8,4.5,7.8,7.7,10.4.8.7,1.6,1.2,2.6,1.9.5.3.9.5,1.5.8.2.1,1.4.7,1.6.7-.3-.3-.7-.8-1-1.1-1.2-1.5-4-4.3-4.8-5.7-.7-1.2-.9-2,0-3.2.9-1.4,2.9-3.1,4.2-4.2,3.1-2.7,6-5.1,9.3-7.7,1.6-1.2,3.2-2.4,4.9-3.6,1.6-1.2,3.3-2.3,5-3.4l2.6-1.7c.2-.1,2.6-1.5,2.6-1.6l2.3-1.3c.8-.4,1.5-.8,2.4-1.2,2.4-1.3,7.2-3.4,9.9-4.4.9-.3,1.8-.6,2.7-.9l2.7-.9c-.2-.1-3.2-.1-3.8-.1-2.2,0-3.6,0-5.7.2-1.6.1-4.7.5-6.2.8-.3,0-.6,0-.9.2-.5.1-1.1.2-1.6.4-1.1.3-2.1.6-3.1.9-1.1.3-2,.7-2.9,1.1-.6.2-2.2,1.4-2.4,1.6h0Zm21.9,5.4l2-1c.7-.3,1.4-.7,2.1-1,1.3-.6,2.1-2.7,2.1-4.1-.2,0-1.2.5-1.4.6-.2,0-.3.1-.5.2-1.2.5-2.7,1.1-3.9,1.6-.3.2-.6.3-1,.4-.3.1-.8.3-.9.5-.4,0-7.5,3.5-8.4,4-1.3.7-2.9,1.5-4.1,2.1-.1,0-3.9,2.1-4,2.2-.2,0-2.8,1.6-3.2,1.8-5.1,2.9-10.7,6.5-15.5,9.8-1.3.9-3.1,2.1-4.4,3.1l-1.1.8c-.1,0-.3.2-.3.3.5.4,3.7,1.7,4.5,2,4.3,1.5,8.3,2.6,12.8,3.4l2.9.4,2.3.2-1.8-.2c.4,0,.7,0,1,.1.5,0,1,0,1.5.1,1,0,2.1.2,3.1.2,1.3,0,1.9,0,3-.3.8-.3,1.4-.8,2.1-1.2,2.4-1.8,4.5-4.6,6.1-7.2,1.8-2.7,3.3-5.7,4.7-8.6.7-1.5,1.3-3.1,2-4.7.3-.8.6-1.6.9-2.5.2-.5.7-2.2.8-2.6-.6,0-11.9,6.2-13,6.7-1.5.8-2.8,1.6-4.2,2.4-1.4.7-2.8,1.6-4.2,2.4-2.8,1.5-5.5,3.2-8.3,4.8-.5.3-4,2.3-4.1,2.5.2,0,11.4-4.8,11.7-4.9.5-.2,11.5-4.9,11.6-4.9,0,.3-.7,1.5-.9,1.9-.3.6-.6,1.3-.9,1.9-1.8,3.5-3.7,7.7-7.5,9.2h-.2c-.2.1-.8.4-1,.4-.4.1-.7.2-1.1.3-1.8.4-4.5.2-6.3-.1-2.1-.3-3.6-.7-5.6-1.2-.5-.1-4-1.1-4.2-1.2.1-.2,2.1-1.5,2.3-1.6,3.9-2.7,10.4-6.7,14.6-9.1.4-.3.9-.5,1.3-.7.3-.2,1-.5,1.2-.7l2-1.1c.7-.4,1.3-.7,2-1.1,1.3-.8,2.7-1.4,4-2.1.2-.1,7.7-4,8.1-4.2h0Zm-50.8,20.5c0-.2-1.4-1.6-1.7-1.9-1.7-1.9-3.4-3.7-5.1-5.7-1.2-1.4-2.3-2.7-3.3-3.9-.4-.5-2.7-3.4-3.1-4,0,.1.5,2.5.6,2.8.1.5.2.9.4,1.4,1.3,4.8,2.6,6.6,7.2,9,.6.3,4.6,2.3,4.9,2.3h0Z"/>
      </g>
      <g>
        <circle class="cls-1" cx="97" cy="42.5" r="41.5"/>
        <path d="m115.5,51.3v-17.6h4.1v14h7.1v3.6h-11.2Zm-32.6-11l9.9-7.6c.9.8,1.9,1.5,2.8,2.3l-9.4,7.1,2,1.8,9.4-7.4c.9.8,1.9,1.5,2.8,2.3-3.1,2.5-6.3,4.9-9.4,7.4l2,1.8,9.4-7.6v-6.6s4.1,0,4.1,0v14h7.4v3.6h-11.2v-6.6c-3.3,2.5-6.6,5.1-9.9,7.6l-9.9-7.6c-.5,2.4-2.2,4.5-4.4,5.6-.9.5-2,.8-3,.9-.6,0-1.2,0-1.8,0h-6.3v-17.6h7.2c1.9,0,3.7.7,5.2,1.9,1.5,1.2,2.6,2.9,3.1,4.8h0Zm-11.7-3.1v10.7h3.2c1.4,0,2.6-.7,3.4-1.7,1.4-1.8,1.7-4.3.6-6.3-.7-1.3-1.8-2.2-3.3-2.6-.6-.1-1.1-.1-1.7-.1h-2.3Z"/>
      </g>
      <g>
        <circle class="cls-1" cx="151.5" cy="42.5" r="41.5"/>
        <path class="cls-3" d="m141.7,12l-8.7,38.5h5.4l8.7-38.5h-5.4Zm22.9,22.6l-3.8,15.8h5.4l3.8-15.8h-5.4Zm-9.2,0l-8.7,38.5h5.4l8.7-38.5h-5.4Zm-9.3,0l-3.8,15.8h5.4l3.8-15.8h-5.4Z"/>
      </g>
    </g>
  </g>
</svg>