<?xml version="1.0" encoding="UTF-8"?>
<svg id="Layer_2" data-name="Layer 2" xmlns="http://www.w3.org/2000/svg" viewBox="0 0 452 452.8">
  <defs>
    <style>
      .cls-1 {
        fill: #fff;
      }

      .cls-2 {
        fill: #e2e2e2;
      }

      .cls-3 {
        fill: #151515;
      }

      .cls-4 {
        fill: #9fede7;
      }

      .cls-5 {
        fill: #161616;
      }

      .cls-6 {
        fill: #dfdfdf;
      }
    </style>
  </defs>
  <g id="Layer_1-2" data-name="Layer 1">
    <g>
      <path class="cls-4" d="m185.9,72c39-10.6,110.9-18.5,136.2,16.9,11.9,16.6,2.2,26.9,10.7,52.5,20.9,63.5,100.3,61.4,115.6,105.9,16.7,48.7-27.9,122.3-66.3,127.7-21.1,3-27.6-16.5-64.2-19.7-7.2-.6-45.6-4-71.9,18.7-30.3,26.1-15.4,61.5-37.4,74.8-32.9,19.9-99.9-39-121.5-58C36.9,346.6,6,319.4.8,276.2-10,187.9,94.3,96.7,185.9,72Z"/>
      <g>
        <path d="m228.6,172.1c10.6-11.5,21.7-22.5,31.5-34.4,7.2-8.7,14.3-10.6,25.3-7,40,13,80.4,24.8,120.7,37.2,9.6,3,10.2,5.2,3.4,12.6-10.3,11.3-20.7,22.6-31,34-1.5,1.6-2.8,3.4-3.9,4.7,14.3,14,28.4,27.6,42.3,41.4,4.7,4.6,4.4,6.1-1.8,8.3-11.7,4.1-23.5,7.8-35.1,12.1-2,.7-4.8,3.3-4.8,5.1-.3,19.1-.2,38.3-.2,58.9h68.5c0,.9,0,1.7,0,2.6h-68.7c0,6.6-.1,12.4,0,18.2.2,4.9-1.7,7.9-6.6,9.5-14.1,4.7-28,9.9-42,14.8-29.3,10.3-58.5,20.9-87.9,30.8-5,1.7-11.4,1.8-16.4.2-24.8-8-49.5-16.6-74.1-25.3-17.4-6.2-34.7-12.6-51.8-19.4-12.6-5-12.5-5.4-11.7-19.1,0-1.5,0-3.1,0-6H13.7c0-1,0-2,0-3,23.2-1.3,46.4.6,70.4.3,0-6.8,0-13.4,0-20.1,0-12.6-.3-25.3-.1-37.9,0-4.3-1.2-6.5-5.3-8-10.8-4-21.4-8.3-32.1-12.5-6.9-2.7-7.2-4.6-1.9-9.8,12.8-12.7,25.6-25.4,38.2-37.9-11.9-12.3-23.2-24.1-34.6-35.8-13-13.2-12.5-15.3,5.2-20.9,38.6-12.2,77.3-24.4,115.8-36.9,7.1-2.3,12.2-1.2,17.5,4,12,11.9,24.5,23.3,36.8,34.9,1.5,1.4,3.1,2.6,5.3,4.4Zm-141.8,113.5c-.2,2.6-.4,3.7-.4,4.8.1,24.3.4,48.6.3,73,0,5.4,3.2,7.6,7.4,9.1,41.4,15.1,82.8,30.3,124.2,45.3,3,1.1,6.4,1.3,10.7,2.1v-146.9c-2.2,2-4.2,3.6-6,5.4-12.1,12.1-24.2,24.2-36.1,36.5-3.1,3.2-6.2,3.9-10.3,2.5-19.9-7-39.9-13.9-59.8-20.9-9.7-3.4-19.3-7-29.9-10.8Zm145.2,134.1c2.2-.4,3.8-.4,5.2-.9,41.6-14.7,83.1-29.7,124.8-44,7.9-2.7,10.2-7.1,10.2-14.8-.2-18.7.2-37.4.3-56.1,0-6.4,0-12.8,0-19.9-3,.8-4.6,1.2-6,1.7-24.4,9.2-48.8,18.5-73.2,27.7-16.9,6.4-13.1,8-27.9-6.6-11-10.8-22.9-20.7-33.4-30v142.9ZM90.1,223.3c4.8-1.1,9.1-1.8,13.1-3.1,34.9-11.9,69.8-24,104.8-35.9,10.9-3.7,21.4-5.3,33.4-1,37.9,13.5,76.4,25.5,114.7,38.2,4.1,1.4,8,2.3,11.9-1.9-3.3-1.3-5.9-2.4-8.7-3.3-41.2-13.2-82.3-26.4-123.6-39.2-5-1.6-11.3-1.8-16.3-.3-36.7,11.6-73,24.3-109.8,35.6-14.3,4.4-26.4,10.8-36.1,22.2-5,5.8-10.7,11-16,16.5-4.5,4.6-8.9,9.4-14.2,14.9,7.5,2.9,13.9,5.4,20.4,7.8,37.5,13.5,74.9,27.1,112.5,40.4,2.3.8,6.4.8,7.9-.7,14.4-13.9,28.4-28.1,43.9-43.6-47-15.9-92.5-31.2-137.8-46.6Zm143.2,46c14.4,15.1,27.7,29.4,41.5,43.2,1.7,1.7,6.4,2.1,9,1.2,41.7-15,83.2-30.4,124.8-45.7,2.5-.9,4.9-2.1,7.4-3.2-.4-1.1-.4-1.9-.8-2.3-12.7-12.4-25.3-25-38.4-37-2-1.8-6.8-2.1-9.8-1.2-10.8,3.2-21.3,7.2-32,10.8-33.4,11.3-66.9,22.5-101.7,34.2ZM40.7,173.7c2.5,3.3,4.1,6,6.3,8.1,10.9,10.8,22,21.3,32.8,32.2,3.7,3.7,6.9,4.2,11.9,2.4,31.5-11.3,63.1-22.5,94.9-33.2,12-4.1,24.4-7.1,37.5-10.8-13.6-12.8-26.7-24.8-39.3-37.1-5-4.9-9.7-5.6-16.3-3.5-37.9,12.3-75.8,24.2-113.8,36.3-4.4,1.4-8.6,3.5-14,5.6Zm372.2-1.1c-12.2-3.7-22.5-6.8-32.7-10-31.6-9.7-63.4-19.1-94.8-29.4-10-3.3-16.7-1.8-23.4,6.5-9.2,11.3-19.7,21.5-29.9,32.4,1.7.9,2.7,1.6,3.7,1.9,20.7,6.9,41.4,13.9,62.2,20.6,23.5,7.6,47.2,15,70.8,22.3,1.5.4,4.1-.9,5.4-2.2,7.4-7.6,14.5-15.5,21.6-23.3,5.3-5.8,10.5-11.6,17.1-19Zm-186.1,8.4c-42.8,14.5-83.9,28.4-125,42.4.1.5.2,1,.3,1.5,41.6,14,83.1,28,124.7,42.1v-85.9Zm3,86.8c43.2-14.8,84.9-29,127.9-43.8-43.7-14.2-85.7-28-127.9-41.7v85.5Z"/>
        <path d="m303.2,112.6c4.8-3.9,9.7-7.7,14.4-11.7,9.7-8.3,10-9.5,6-21.2-.2-.6-.4-1.3-.6-1.9-4.5-14.4-2.5-17.7,12.3-21.1,1.1-.2,2.2-.5,3.3-.8,18.3-4.4,22.1-9.4,21.6-28.2,0-1.3,0-2.6,0-4.4,6.6,10,1.3,27.2-9.7,31.7-6,2.4-12.5,3.6-18.8,5.4-8.1,2.3-9,3.8-7.1,12.1.4,1.8.9,3.5,1.4,5.2,4.8,14.4,4.3,16.4-7.3,26-4.6,3.8-9.2,7.5-13.8,11.2-.5-.7-1.1-1.4-1.6-2.1Z"/>
        <path d="m208.8,0c-2,9.6,2.2,16.7,7.9,23.5,5,6,4.5,12.1-.6,19.1-2.5,3.4-5.4,6.7-7.5,10.3-3.1,5.4-2.2,10.4,3.2,14.1,1.1.8,2.3,1.5,3.4,2.1,13.7,8.1,14.7,10.8,9,25.5-2.1,5.4-4.3,10.6-6.5,15.9-.6-.1-1.2-.3-1.9-.4.5-1.8.8-3.7,1.4-5.5,2.2-5.9,4.4-11.8,6.7-17.6,2.1-5.3.3-9.2-4.3-12-2.5-1.5-5.1-2.9-7.6-4.4-8.6-5.5-10.1-11.8-4.7-20.6,2.1-3.4,4.6-6.7,7.1-9.8,4.4-5.4,4.3-10.5-.3-15.7-5.2-5.9-9.1-12.4-8.1-20.7.1-1.2.6-2.4,1-3.6.6,0,1.3-.2,1.9-.3Z"/>
        <path d="m48.5,60c6.1,5.3,12.9,4.3,19.8,2.9,12.5-2.6,15.4-.3,15.4,12.6,0,3.8-.3,7.6-.4,11.5,0,6.2,3.1,9.6,9.3,10.2,5.2.5,10.3,1,15.5,1.3,4.8.3,8,2,9.2,7.1.8,3.3,2.8,6.4,3.1,10.6-1.7-2.5-4.2-4.8-4.8-7.6-1.3-5.6-4.1-8-9.9-7.8-3.1.1-6.3-.6-9.4-.8-13.2-1.2-15.2-3.5-15.2-16.9,0-4.1.3-8.1,0-12.2-.3-5-2.8-7.3-8-6.3-4.6.8-9.3,1.6-14,1.8-4.6.2-9.1-.6-10.5-6.5Z"/>
        <path d="m395.9,131.6c6-1.3,12.1-2.7,18.1-4,9-2,10.8-3.9,11.4-13.1.6-8.7,1.5-17.1,7.8-23.8,2-2.1,4.5-3.8,6.7-5.6.3.4.7.8,1,1.3-2.5,2.5-6.1,4.6-7.3,7.7-2.6,6.8-4.6,14-5.5,21.2-1.2,9.5-3,12.6-12.5,14.8-6.5,1.5-13,2.8-19.5,4.1,0-.8-.2-1.7-.3-2.5Z"/>
        <path d="m134.9,71.1c-4.5-1-8-3.2-7.5-8.5.4-5,4.2-7.1,8.5-6.8,4.3.4,7.8,3.1,7.3,8.1-.4,4.5-3.1,7.4-8.2,7.2Z"/>
        <path class="cls-1" d="m86.9,285.6c10.6,3.8,20.2,7.4,29.9,10.8,19.9,7,39.9,13.9,59.8,20.9,4.1,1.4,7.2.7,10.3-2.5,11.9-12.3,24-24.4,36.1-36.5,1.8-1.8,3.8-3.4,6-5.4v146.9c-4.3-.8-7.6-1-10.7-2.1-41.4-15-82.8-30.1-124.2-45.3-4.2-1.5-7.4-3.7-7.4-9.1,0-24.3-.2-48.6-.3-73,0-1.1.2-2.2.4-4.8Z"/>
        <path class="cls-1" d="m232.1,419.7v-142.9c10.4,9.3,22.4,19.1,33.4,30,14.8,14.6,11,13,27.9,6.6,24.4-9.2,48.8-18.5,73.2-27.7,1.4-.5,3-.8,6-1.7,0,7.1,0,13.5,0,19.9-.1,18.7-.5,37.4-.3,56.1,0,7.7-2.3,12-10.2,14.8-41.7,14.3-83.2,29.3-124.8,44-1.4.5-3,.5-5.2.9Z"/>
        <path class="cls-1" d="m90.1,223.3c45.3,15.3,90.7,30.7,137.8,46.6-15.5,15.5-29.5,29.8-43.9,43.6-1.5,1.5-5.6,1.5-7.9.7-37.5-13.3-75-26.8-112.5-40.4-6.5-2.3-12.9-4.9-20.4-7.8,5.3-5.5,9.7-10.2,14.2-14.9,5.3-5.5,11-10.7,16-16.5,9.7-11.4,21.8-17.8,36.1-22.2,36.8-11.3,73.1-24,109.8-35.6,4.9-1.6,11.3-1.3,16.3.3,41.3,12.8,82.4,26,123.6,39.2,2.8.9,5.4,2.1,8.7,3.3-3.9,4.2-7.7,3.3-11.9,1.9-38.3-12.7-76.7-24.7-114.7-38.2-12-4.3-22.4-2.7-33.4,1-34.9,11.9-69.8,24-104.8,35.9-4,1.4-8.2,2-13.1,3.1Z"/>
        <path class="cls-1" d="m233.4,269.3c34.8-11.7,68.2-23,101.7-34.2,10.7-3.6,21.2-7.6,32-10.8,3-.9,7.8-.6,9.8,1.2,13.1,12,25.7,24.6,38.4,37,.4.4.5,1.2.8,2.3-2.5,1.1-4.9,2.3-7.4,3.2-41.6,15.3-83.1,30.7-124.8,45.7-2.6.9-7.2.5-9-1.2-13.8-13.8-27.1-28.1-41.5-43.2Z"/>
        <path class="cls-1" d="m40.7,173.7c5.4-2.2,9.6-4.2,14-5.6,37.9-12.1,75.9-24,113.8-36.3,6.6-2.1,11.3-1.4,16.3,3.5,12.7,12.4,25.8,24.4,39.3,37.1-13.2,3.8-25.5,6.8-37.5,10.8-31.7,10.8-63.3,21.9-94.9,33.2-5,1.8-8.2,1.3-11.9-2.4-10.8-10.9-21.9-21.4-32.8-32.2-2.1-2.1-3.7-4.8-6.3-8.1Z"/>
        <path class="cls-1" d="m412.9,172.6c-6.6,7.4-11.8,13.2-17.1,19-7.2,7.8-14.3,15.7-21.6,23.3-1.3,1.3-3.9,2.6-5.4,2.2-23.7-7.2-47.3-14.7-70.8-22.3-20.8-6.7-41.5-13.7-62.2-20.6-1-.3-2-1-3.7-1.9,10.2-10.9,20.7-21.2,29.9-32.4,6.7-8.3,13.4-9.8,23.4-6.5,31.5,10.3,63.2,19.7,94.8,29.4,10.2,3.1,20.5,6.2,32.7,10Z"/>
        <path class="cls-1" d="m226.8,181v85.9c-41.6-14-83.1-28-124.7-42.1-.1-.5-.2-1-.3-1.5,41.1-13.9,82.2-27.9,125-42.4Z"/>
        <path class="cls-1" d="m229.7,267.8v-85.5c42.1,13.7,84.2,27.5,127.9,41.7-43,14.7-84.7,29-127.9,43.8Z"/>
        <path class="cls-3" d="m266.8,76.7c-1.4-6.2,7-14.5-4.8-19.6,12.8,3.1,13.5-7.5,17.7-13,2.3.5,1.7,1.9,1.9,2.9,1,5.4,1,11.4,9.6,10.1,2.3-.4,3.2,2.2,1,4.1-1.3,1.1-2.8,2-4.3,2.5-3,1.1-3.6,3.6-2.6,5.9.9,2.3.6,4.5,1,6.7.3,1.4,1.9,2.9-.3,3.8-1.5.6-2.5-1-3-2-3.6-6.9-8-7.2-13.2-1.8-.6.6-1.5,1.2-2.9.5Z"/>
        <path class="cls-2" d="m283.8,74c-4.3-7.7-9.1-5.2-14.2-.8-.5-5.1,5.4-9.9-3.2-14,8.3,0,10.6-4.7,13.2-9.6,1.9,2.5-.4,5.7,2.2,7.6,2.1,1.5,4.5,1.8,7.8,2.3-7.6,2.7-8.3,7.7-5.8,14.5Z"/>
        <path class="cls-5" d="m53.1,128.3c2.6,1,6.5,2.1,6.1,4.6-.5,3.1-4.6,2.6-7.3,2.2-5.9-.9-4.7,3.9-5.7,6.8-.5,1.4.2,3.4-1.4,4-1.7.6-2.8-1.3-3.3-2.4-2.1-4.7-4.7-7.5-10.2-4.9-1,.5-2.2-.2-2.9-1.3-.9-1.4-.4-2.5.6-3.5,1.3-1.4,2.5-2.9,3.7-4.3.7-.6,1.4-.9,2.3-.7,6.2,5.4,8,5.3,16-.3.7-.3,1.4-.8,2.2-.2Z"/>
        <path class="cls-5" d="m53.1,128.3c-.4.4-.9.9-1.3,1.3-2.6,2.5-5.3,1.3-6.7-.9-2.9-4.4-5.2-3.2-7.9,0-.6.7-1.4,1.3-2.5.8-.7,0-1.4,0-2.1,0,1.3-4.4-4.1-6-4-10.1.7,0,1.7-.4,2.4-.1,5.3,2.2,9.8,1.9,13.5-3.3,2.1-2.9,3.2-1.1,4.3,1.6,1.4,3.6-1.1,8.8,4.3,10.7Z"/>
        <path class="cls-2" d="m34.7,129.6c2.3-2.8-1.4-4.1-1.6-7.1,5.5,2,9.8.1,13.4-4.9.2,5.3-2.7,11.3,5.2,12.1.3,1.1,2.3.8,2.1,2.3-.2.9-1.1,1-1.8.9-6.1-1.2-7.6,2.9-8.7,8.3-2.2-3.9-4.4-5.9-8.8-6.4-4.2-.5,1.1-3.3.2-5.2Z"/>
        <path class="cls-5" d="m384.1,90c3.4.6,7.2.8,6.8,6-.3,4.8-3.2,7.7-7.7,8.1-4.2.3-6.5-2.4-6.5-6.8,0-4.8,2.5-7,7.4-7.3Z"/>
        <path class="cls-6" d="m387.9,95.6c-.2,4-2.7,4.8-4.8,5.1-2,.3-3.1-1.6-3-3.6.1-2.9,2.2-3.7,4.8-3.8,2.4,0,3.3,1.1,3.1,2.3Z"/>
      </g>
    </g>
  </g>
</svg>