<?xml version="1.0" encoding="UTF-8"?>
<svg id="Layer_2" data-name="Layer 2" xmlns="http://www.w3.org/2000/svg" viewBox="0 0 487.8 479.1">
  <defs>
    <style>
      .cls-1 {
        fill: #e2e2e2;
      }

      .cls-2 {
        fill: #151515;
      }

      .cls-3 {
        fill: #161616;
      }

      .cls-4 {
        fill: #dfdfdf;
      }
    </style>
  </defs>
  <g id="Layer_1-2" data-name="Layer 1">
    <g>
      <path d="m243.9,195.3c12.1-13.1,24.6-25.5,35.8-39,8.2-9.9,16.2-12,28.7-8,45.4,14.7,91.3,28.2,136.9,42.2,10.9,3.4,11.6,5.9,3.9,14.3-11.7,12.9-23.4,25.7-35.1,38.5-1.7,1.8-3.2,3.8-4.5,5.4,16.3,15.9,32.2,31.4,48,46.9,5.3,5.2,5,6.9-2,9.4-13.2,4.7-26.6,8.9-39.8,13.7-2.3.8-5.4,3.7-5.5,5.7-.4,21.7-.2,43.4-.2,66.9h77.8c0,1,0,2,0,3h-77.9c0,7.5-.2,14.1,0,20.6.2,5.6-1.9,8.9-7.5,10.8-16,5.4-31.8,11.2-47.7,16.8-33.2,11.7-66.4,23.7-99.8,34.9-5.7,1.9-13,2-18.7.2-28.2-9.1-56.1-18.9-84-28.8-19.7-7-39.4-14.3-58.8-22-14.3-5.7-14.2-6.2-13.3-21.6,0-1.7,0-3.5,0-6.8H0c0-1.1,0-2.3,0-3.4,26.3-1.5,52.7.7,79.8.4,0-7.7,0-15.2,0-22.8,0-14.3-.4-28.7-.1-43,0-4.8-1.4-7.4-6-9.1-12.2-4.5-24.3-9.4-36.4-14.2-7.8-3-8.2-5.2-2.2-11.1,14.5-14.4,29-28.8,43.3-43-13.5-13.9-26.3-27.4-39.3-40.6-14.7-14.9-14.1-17.4,5.9-23.7,43.8-13.9,87.7-27.6,131.4-41.9,8.1-2.6,13.8-1.4,19.8,4.6,13.6,13.5,27.8,26.5,41.7,39.6,1.7,1.6,3.5,2.9,6,4.9Zm-160.9,128.7c-.3,2.9-.5,4.2-.5,5.4.1,27.6.4,55.2.4,82.8,0,6.2,3.6,8.6,8.4,10.4,47,17.2,93.9,34.3,141,51.4,3.4,1.2,7.2,1.4,12.1,2.3v-166.7c-2.5,2.2-4.8,4.1-6.8,6.1-13.7,13.8-27.5,27.5-41,41.4-3.5,3.6-7.1,4.5-11.7,2.8-22.6-8-45.3-15.8-67.9-23.7-11-3.9-22-8-33.9-12.3Zm164.8,152.2c2.5-.4,4.3-.5,5.9-1.1,47.2-16.7,94.3-33.7,141.6-49.9,9-3.1,11.6-8,11.5-16.7-.2-21.2.2-42.5.3-63.7,0-7.3,0-14.5,0-22.6-3.4,1-5.2,1.3-6.8,1.9-27.7,10.5-55.4,21-83.1,31.4-19.2,7.2-14.9,9.1-31.6-7.5-12.5-12.3-26-23.4-37.8-34v162.2ZM86.7,253.4c5.5-1.3,10.3-2,14.8-3.6,39.6-13.5,79.2-27.3,118.9-40.7,12.4-4.2,24.3-6,37.9-1.1,43.1,15.3,86.7,29,130.1,43.3,4.7,1.6,9.1,2.6,13.5-2.2-3.7-1.4-6.7-2.8-9.8-3.8-46.7-14.9-93.4-30-140.3-44.5-5.7-1.8-12.9-2.1-18.5-.3-41.6,13.2-82.8,27.6-124.6,40.4-16.2,5-30,12.2-41,25.2-5.6,6.6-12.1,12.5-18.1,18.8-5.1,5.3-10.1,10.6-16.1,16.9,8.5,3.2,15.8,6.2,23.2,8.8,42.5,15.4,85,30.7,127.6,45.8,2.6.9,7.3.9,9-.8,16.3-15.7,32.2-31.9,49.8-49.5-53.4-18-104.9-35.5-156.3-52.8Zm162.5,52.2c16.3,17.2,31.5,33.4,47.1,49.1,2,2,7.2,2.4,10.2,1.4,47.3-17.1,94.4-34.5,141.6-51.9,2.8-1,5.5-2.4,8.3-3.7-.4-1.2-.4-2.1-.9-2.6-14.4-14.1-28.7-28.4-43.6-42-2.3-2.1-7.7-2.3-11.1-1.4-12.2,3.6-24.2,8.1-36.3,12.2-37.9,12.8-75.9,25.6-115.3,38.9ZM30.6,197c2.9,3.8,4.7,6.8,7.1,9.2,12.3,12.2,25,24.2,37.2,36.5,4.2,4.2,7.8,4.8,13.5,2.7,35.8-12.9,71.7-25.5,107.7-37.7,13.6-4.6,27.7-8,42.6-12.3-15.4-14.5-30.3-28.1-44.6-42.1-5.6-5.5-11-6.3-18.5-3.9-42.9,14-86.1,27.4-129.1,41.2-5,1.6-9.8,3.9-15.8,6.4Zm422.3-1.2c-13.9-4.2-25.5-7.7-37.1-11.3-35.9-11-71.9-21.7-107.6-33.4-11.4-3.7-18.9-2-26.6,7.4-10.4,12.8-22.3,24.4-33.9,36.8,2,1,3,1.8,4.2,2.2,23.5,7.8,47,15.8,70.5,23.4,26.7,8.6,53.5,17.1,80.4,25.3,1.7.5,4.7-1,6.1-2.5,8.3-8.6,16.4-17.5,24.6-26.4,6-6.6,11.9-13.2,19.5-21.6Zm-211.2,9.6c-48.6,16.5-95.2,32.3-141.8,48.1.1.6.3,1.1.4,1.7,47.2,15.9,94.3,31.8,141.5,47.7v-97.5Zm3.4,98.5c49-16.8,96.3-32.9,145.1-49.6-49.5-16.2-97.3-31.7-145.1-47.3v97Z"/>
      <path d="m328.5,127.8c5.4-4.4,11-8.8,16.3-13.3,11-9.4,11.4-10.8,6.8-24.1-.3-.7-.5-1.4-.7-2.2-5.1-16.3-2.9-20.1,13.9-23.9,1.2-.3,2.5-.6,3.7-.9,20.7-5,25-10.7,24.5-32,0-1.5,0-2.9,0-5,7.5,11.4,1.5,30.9-11,35.9-6.8,2.7-14.2,4.1-21.3,6.1-9.2,2.6-10.2,4.3-8.1,13.7.4,2,1,4,1.6,5.9,5.5,16.4,4.9,18.6-8.3,29.5-5.2,4.3-10.4,8.5-15.6,12.7-.6-.8-1.2-1.6-1.9-2.3Z"/>
      <path d="m221.4,0c-2.3,10.8,2.5,18.9,8.9,26.7,5.7,6.8,5.1,13.7-.7,21.7-2.9,3.9-6.1,7.6-8.5,11.7-3.5,6.2-2.5,11.8,3.6,16,1.3.9,2.6,1.7,3.9,2.4,15.5,9.2,16.7,12.3,10.2,28.9-2.3,6.1-4.9,12.1-7.4,18.1-.7-.2-1.4-.3-2.1-.5.5-2.1.9-4.2,1.6-6.2,2.5-6.7,5-13.3,7.6-20,2.4-6,.3-10.4-4.9-13.6-2.8-1.7-5.8-3.2-8.6-5-9.8-6.2-11.5-13.4-5.3-23.4,2.4-3.9,5.2-7.6,8.1-11.1,5-6.1,4.9-11.9-.4-17.8-5.9-6.7-10.3-14-9.2-23.5.2-1.4.7-2.7,1.1-4,.7,0,1.4-.2,2.1-.3Z"/>
      <path d="m39.5,68.1c6.9,6,14.7,4.9,22.4,3.3,14.2-2.9,17.4-.4,17.4,14.3,0,4.3-.4,8.7-.4,13,0,7.1,3.5,10.9,10.5,11.6,5.8.6,11.7,1.1,17.6,1.4,5.4.3,9,2.3,10.5,8.1.9,3.8,3.1,7.3,3.5,12-1.9-2.8-4.7-5.5-5.5-8.6-1.5-6.3-4.7-9.1-11.2-8.8-3.5.2-7.1-.6-10.7-1-15-1.4-17.3-3.9-17.3-19.2,0-4.6.3-9.2,0-13.8-.3-5.6-3.2-8.2-9.1-7.2-5.3.9-10.6,1.8-15.9,2.1-5.2.3-10.3-.7-11.9-7.4Z"/>
      <path d="m433.7,149.3c6.8-1.5,13.7-3,20.5-4.5,10.2-2.3,12.3-4.4,12.9-14.8.6-9.8,1.7-19.4,8.8-27,2.2-2.4,5.1-4.3,7.7-6.4.4.5.8.9,1.2,1.4-2.8,2.9-6.9,5.3-8.2,8.7-2.9,7.7-5.3,15.9-6.3,24.1-1.3,10.7-3.4,14.3-14.2,16.8-7.3,1.7-14.7,3.1-22.1,4.7-.1-1-.2-1.9-.3-2.9Z"/>
      <path d="m137.5,80.7c-5.1-1.1-9.1-3.6-8.6-9.7.5-5.7,4.8-8.1,9.6-7.7,4.9.4,8.8,3.5,8.3,9.2-.5,5.2-3.5,8.4-9.4,8.2Z"/>
      <path class="cls-2" d="m287.2,87c-1.6-7,7.9-16.4-5.4-22.3,14.5,3.5,15.3-8.5,20-14.7,2.6.6,1.9,2.1,2.1,3.3,1.1,6.2,1.2,13,10.9,11.4,2.6-.4,3.6,2.5,1.1,4.6-1.4,1.2-3.2,2.2-4.9,2.9-3.4,1.3-4,4.1-3,6.7,1.1,2.6.7,5.1,1.2,7.6.3,1.5,2.1,3.3-.3,4.3-1.7.7-2.8-1.2-3.4-2.3-4.1-7.9-9.1-8.2-15-2.1-.7.7-1.7,1.4-3.3.6Z"/>
      <path class="cls-1" d="m306.5,83.9c-4.9-8.8-10.4-5.9-16.1-.9-.6-5.8,6.1-11.3-3.6-15.9,9.4,0,12.1-5.3,15-10.9,2.1,2.9-.4,6.5,2.5,8.6,2.4,1.7,5.1,2.1,8.9,2.6-8.6,3-9.4,8.7-6.5,16.5Z"/>
      <path class="cls-3" d="m44.7,145.6c2.9,1.1,7.4,2.4,7,5.2-.6,3.5-5.2,3-8.3,2.5-6.7-1-5.4,4.4-6.5,7.7-.5,1.5.3,3.9-1.6,4.6-1.9.7-3.2-1.5-3.8-2.8-2.3-5.3-5.3-8.6-11.6-5.6-1.2.6-2.5-.2-3.3-1.4-1-1.5-.5-2.8.6-4,1.5-1.6,2.8-3.2,4.2-4.9.7-.6,1.6-1,2.6-.8,7.1,6.1,9.1,6.1,18.2-.4.8-.4,1.6-.9,2.5-.2Z"/>
      <path class="cls-3" d="m44.7,145.6c-.5.5-1,1-1.5,1.5-3,2.8-6,1.4-7.7-1.1-3.3-5-5.9-3.6-8.9,0-.7.8-1.6,1.4-2.8.9-.8,0-1.6,0-2.4,0,1.5-5-4.6-6.8-4.5-11.5.8,0,1.9-.5,2.7-.2,6.1,2.5,11.1,2.2,15.3-3.7,2.4-3.3,3.6-1.3,4.9,1.9,1.6,4-1.2,9.9,4.9,12.1Z"/>
      <path class="cls-1" d="m23.9,147c2.6-3.2-1.6-4.7-1.8-8,6.3,2.3,11.2.2,15.3-5.6.3,6-3,12.8,5.9,13.8.4,1.3,2.6.9,2.3,2.6-.2,1.1-1.3,1.2-2.1,1-6.9-1.4-8.6,3.3-9.9,9.4-2.5-4.4-5-6.7-10-7.3-4.7-.5,1.3-3.8.3-5.9Z"/>
      <path class="cls-3" d="m420.3,102.1c3.8.6,8.2.9,7.8,6.8-.4,5.4-3.7,8.8-8.7,9.2-4.8.4-7.4-2.8-7.4-7.7,0-5.5,2.8-8,8.4-8.3Z"/>
      <path class="cls-4" d="m424.6,108.5c-.3,4.5-3,5.5-5.4,5.8-2.3.3-3.6-1.8-3.5-4.1.1-3.3,2.5-4.3,5.4-4.4,2.7,0,3.8,1.2,3.5,2.7Z"/>
    </g>
  </g>
</svg>