<?xml version="1.0" encoding="UTF-8"?>
<svg id="Layer_2" data-name="Layer 2" xmlns="http://www.w3.org/2000/svg" viewBox="0 0 297.1 674.3">
  <defs>
    <style>
      .cls-1 {
        stroke: #000;
        stroke-miterlimit: 10;
        stroke-width: 12px;
      }
    </style>
  </defs>
  <g id="Layer_1-2" data-name="Layer 1">
    <g>
      <path class="cls-1" d="m6,668.3V33.8c0-3,2.4-5.4,5.4-5.4h6.5c3,0,5.4,2.4,5.4,5.4v617.2h209c3,0,5.4,2.4,5.4,5.4v6.5c0,3-2.4,5.4-5.4,5.4H6Z"/>
      <path class="cls-1" d="m140.6,660c-27.4,0-51.6-5.6-72.5-16.8-20.9-11.2-37-30.5-48.2-57.9-11.2-27.4-7.8-64.6-7.8-111.5v-7.6c0-3-6.6-5.4-3.6-5.4h6.5c3,0,5.4,2.4,5.4,5.4v7.6c0,43.3,5.2,77.3,15.7,101.8,10.5,24.5,24.7,41.9,42.8,52,18,10.1,38.6,15.2,61.7,15.2,38.3,0,70-11,95.3-33,25.3-22,37.9-61.2,37.9-117.5s-6.3-66.2-18.9-86.1c-12.6-19.8-29.6-35.2-50.9-46-21.3-10.8-44.6-20.9-69.8-30.3-26-10.1-48.6-21.5-67.7-34.1-19.1-12.6-33.9-29.1-44.4-49.3-10.5-20.2-15.7-47.3-15.7-81.2,0-48.4,10.6-87,31.9-115.9C59.6,20.4,95.1,6,145,6s77.6,11.9,102.9,35.7c25.3,23.8,37.9,57.4,37.9,100.7v37.9c0,3-2.4,5.4-5.4,5.4h-6.5c-3,0-5.4-2.4-5.4-5.4v-33.6c0-39-10.8-69.3-32.5-91-21.7-21.7-52-32.5-91-32.5s-76.2,13.5-94.2,40.6c-18.1,27.1-27.1,60.8-27.1,101.2s5.6,59.2,16.8,78c11.2,18.8,26,33.2,44.4,43.3,18.4,10.1,38.1,19.5,59,28.1,34.7,13.7,62.8,27.1,84.5,40.1,21.7,13,37.5,29.8,47.6,50.3,10.1,20.6,15.2,49.6,15.2,87.2s-6.7,74-20,98.5c-13.4,24.5-31.4,42.2-54.1,53.1-22.7,10.8-48.2,16.2-76.3,16.2Z"/>
      <path class="cls-1" d="m133.9,491.3h17.1v155.4c0,.3-.3.6-.6.6h-15.9c-.3,0-.6-.3-.6-.6v-155.4h0Z" transform="translate(284.9 1138.6) rotate(180)"/>
    </g>
  </g>
</svg>