<?xml version="1.0" encoding="UTF-8"?>
<svg id="Layer_2" data-name="Layer 2" xmlns="http://www.w3.org/2000/svg" viewBox="0 0 258.2 111.2">
  <defs>
    <style>
      .cls-1 {
        fill: #caebff;
      }
    </style>
  </defs>
  <g id="Layer_1-2" data-name="Layer 1">
    <path class="cls-1" d="m102.7,105.3c8-3.9,14.6-10.1,19.6-18.6,5.1-8.4,10.3-19.4,15.6-32.9,3.4-8.2,7-15.8,11-23,3.9-7.2,9.6-12.9,16.9-17.3,7.3-4.4,17.4-6.5,30.4-6.5s28.9,3.5,39.5,10.6c10.6,7,15.8,19.3,15.8,36.7s-4.2,27-12.7,35.5-20.3,12.7-35.5,12.7h-13.1c-1.2,0-2.1.9-2.1,2.1v2.5c0,1.2.9,2.1,2.1,2.1h14.8c16.9,0,30-4.9,39.3-14.8,9.3-9.9,13.9-23.2,13.9-40.1s-5.6-33.3-16.9-41.6c-3.1-2.3-6.4-4.2-10-5.8h16.1c1.2,0,2.1-.9,2.1-2.1v-2.5c0-1.2-.9-2.1-2.1-2.1H0v88.2c0,1.2.9,2.1,2.1,2.1h2.5c1.2,0,2.1-.9,2.1-2.1v-13c.8,2.4,1.7,4.7,2.8,7,4.2,8.9,11.1,15.9,20.7,21.1,9.6,5.2,22.4,7.8,38.4,7.8s26-2,34-5.9ZM6.8,6.8h22.6c-9.1,4.3-15.6,10.1-19.6,17.5-1.2,2.2-2.2,4.5-3,6.8V6.8Zm16.1,82.9c-7.8-8.9-12-20-12.8-33.1h57c1.1,0,1.9-.9,1.9-1.9v-2.8c0-1.1-.9-1.9-1.9-1.9H10.1c.3-8,2.3-15.1,5.8-21.4,3.9-7,10.7-12.6,20.3-16.7,5.5-2.3,12.1-4,20-5h107.4c-7.5,4-13.6,9.6-18.3,16.8-4.9,7.5-9.4,16.3-13.3,26.4-3.7,9.8-7.6,18.9-11.8,27.2-4.2,8.3-10.2,14.9-17.9,19.8-7.7,4.9-18.9,7.4-33.6,7.4-22,0-37.2-4.9-45.8-14.8Z"/>
  </g>
</svg>